<svg width="200" height="42" viewBox="0 0 200 42" fill="none" xmlns="http://www.w3.org/2000/svg">
<path d="M41.9244 9.71577V32.2844C41.9293 32.3755 41.9293 32.4667 41.9244 32.5577C41.8426 35.1001 40.8017 37.5093 39.023 39.2727C37.2444 41.0362 34.8684 42.0147 32.4006 42.0001H9.52381C7.01408 42.0029 4.60494 40.9834 2.82112 39.1636C1.0373 37.3439 0.0233088 34.8713 0 32.2844V9.71577C0.014285 7.126 1.0254 4.64801 2.81119 2.82625C4.59697 1.00449 7.01134 -0.0120054 9.52381 0.000107019H32.4006C34.9131 -0.0120054 37.3274 1.00449 39.1132 2.82625C40.899 4.64801 41.9101 7.126 41.9244 9.71577Z" fill="#43B551"/>
<path d="M41.9245 28.5092V32.2842C41.9294 32.3752 41.9294 32.4664 41.9245 32.5574C40.357 31.483 39.0038 30.1088 37.9383 28.5092C37.0021 26.9565 36.1499 25.3517 35.3855 23.702C35.1891 23.2466 34.9928 22.7912 34.7473 22.3357C33.9677 20.8849 33.0815 19.4977 32.0963 18.1863C30.908 16.6435 29.8719 14.9822 29.0036 13.2273C28.256 11.5462 27.7753 9.7523 27.5799 7.91406C27.5308 7.56165 27.5308 7.20382 27.5799 6.85141V6.44659C27.0224 6.91642 26.5775 7.5123 26.2795 8.18802C25.9815 8.86373 25.8386 9.60111 25.8617 10.343C25.9108 12.4177 26.7944 14.4924 27.7272 16.6177L27.9726 17.2249L29.1999 20.3623C29.6908 21.6273 29.4454 22.4876 29.1017 22.9936C28.7581 23.4996 28.1199 24.1068 26.7453 24.1574H15.9844C14.4626 24.3092 14.168 24.3598 14.2171 26.6369C14.3644 29.2683 15.4935 37.0104 16.4262 42.0201H13.2353C12.9898 41.008 12.7934 39.7936 12.548 38.4273C11.7134 33.6201 11.0752 28.408 10.9771 26.8394C10.9771 23.6514 11.7625 21.4755 15.739 21.1213H26.0482L24.7718 17.9333C23.79 15.6562 22.7591 13.2273 22.6609 10.4948C22.6352 9.23677 22.8974 7.99021 23.4262 6.8561C23.955 5.722 24.7355 4.73226 25.7046 3.96707C26.313 3.51515 27.0582 3.30246 27.8055 3.36742C28.5527 3.43238 29.2528 3.77072 29.7792 4.32129C30.712 5.28273 30.6138 6.49719 30.5647 7.20562V7.71165C30.7477 9.19781 31.1448 10.6475 31.7429 12.0129C32.5421 13.566 33.4788 15.0397 34.5411 16.4153C35.6461 17.8626 36.6314 19.403 37.4866 21.0201C37.7321 21.4755 37.9285 21.9815 38.1739 22.4369C38.8604 23.9584 39.6478 25.4294 40.5303 26.8394C40.9415 27.4412 41.4084 28.0004 41.9245 28.5092Z" fill="white"/>
<path d="M69.0231 15.0594L68.3358 18.0955L68.1394 18.9557C67.7467 16.7292 67.5012 15.2618 67.3539 14.6039L65.0466 4.63525H60.6284V4.73646C59.1556 11.163 58.321 15.0087 58.0756 16.122C57.8792 17.0328 57.6828 17.9943 57.4865 19.0063L57.0447 16.7292L54.4428 4.63525H50.3682L55.081 23.4087H59.7447V23.3075C61.4138 16.0208 62.3466 11.8714 62.4448 11.2642C62.5429 10.8087 62.6902 10.1509 62.8375 9.34128C63.0339 10.4545 63.2302 11.5678 63.4757 12.5798L65.9303 23.4087H70.594L75.3068 4.63525H71.2322L69.0231 15.0594Z" fill="#3A4953"/>
<path d="M77.7124 23.4087H91.409V20.1702H81.7379V15.5148H91.3108V12.2762H81.7379V7.87381H91.409V4.63525H77.7124V23.4087Z" fill="#3A4953"/>
<path d="M99.1654 4.63525H95.189V23.4087H108.836V20.1702H99.1654V4.63525Z" fill="#3A4953"/>
<path d="M108.64 7.87381H114.482V23.4087H118.458V7.87381H124.3V4.63525H108.64V7.87381Z" fill="#3A4953"/>
<path d="M141.826 13.6929C142.559 12.708 142.941 11.4928 142.906 10.2519C142.906 8.43026 142.317 7.01339 141.09 6.05194C139.863 5.0905 138.193 4.58447 136.033 4.58447H126.902V23.4086H130.928V16.3748H135.15L139.273 23.358L139.323 23.4086H143.839L138.93 15.5652C140.088 15.3363 141.122 14.6683 141.826 13.6929ZM138.93 10.4544C138.956 10.8235 138.899 11.194 138.763 11.5365C138.626 11.879 138.415 12.1841 138.144 12.4278C137.481 12.9382 136.663 13.1892 135.837 13.1363H131.026V7.87363H135.739C137.85 7.87363 138.93 8.73387 138.93 10.4544Z" fill="#3A4953"/>
<path d="M156.897 4.63525H152.283L145.704 23.2772L145.655 23.429H149.681L151.301 18.6724H157.977L159.597 23.429H163.574L156.946 4.7061L156.897 4.63525ZM154.59 8.09646L155.277 10.3736L156.995 15.535H152.184C153.51 11.4868 154.197 9.41212 154.345 9.0579C154.492 8.70369 154.541 8.32923 154.59 8.09646Z" fill="#3A4953"/>
<path d="M173.245 4.63525H166.618V23.4087H174.031C175.638 23.4386 177.226 23.045 178.645 22.2651C179.992 21.5002 181.087 20.337 181.787 18.9254C182.562 17.3602 182.95 15.622 182.916 13.8651C182.916 10.8796 182.082 8.60248 180.363 6.98321C178.645 5.44489 176.289 4.63525 173.245 4.63525ZM178.842 13.8955C178.842 15.8184 178.351 17.3871 177.418 18.5003C176.949 19.0521 176.366 19.4886 175.712 19.7776C175.058 20.0666 174.349 20.2007 173.638 20.1702H170.545V7.87381H173.098C174.914 7.87381 176.338 8.37983 177.32 9.39188C178.302 10.4039 178.842 11.922 178.842 13.8955Z" fill="#3A4953"/>
<path d="M190.378 15.5148H200V12.2762H190.378V7.87381H200V4.63525H186.401V23.4087H200V20.1702H190.378V15.5148Z" fill="#3A4953"/>
<path d="M80.9521 37.2382V28.5649H87.4814V30.422H83.2006V31.9755H87.1279V33.8327H83.2006V35.3811H87.4814V37.2382H80.9521Z" fill="#96A1A9"/>
<path d="M91.4824 37.2382V28.5649H95.5718C97.614 28.5649 99.0818 30.3613 99.0818 32.9016C99.0818 35.4418 97.6091 37.2382 95.5718 37.2382H91.4824ZM93.7554 35.3811H95.0072C96.21 35.3811 96.8089 34.4045 96.8089 32.9016C96.8089 31.3987 96.21 30.422 95.0072 30.422H93.7554V35.3811Z" fill="#96A1A9"/>
<path d="M102.386 33.7213V28.5649H104.659V33.9541C104.638 34.1597 104.66 34.3674 104.723 34.5638C104.785 34.7601 104.887 34.9408 105.021 35.0942C105.156 35.2475 105.32 35.3701 105.503 35.454C105.686 35.5379 105.884 35.5813 106.085 35.5813C106.285 35.5813 106.484 35.5379 106.667 35.454C106.85 35.3701 107.014 35.2475 107.148 35.0942C107.283 34.9408 107.385 34.7601 107.447 34.5638C107.509 34.3674 107.531 34.1597 107.511 33.9541V28.5649H109.745V33.7213C109.745 35.6189 108.665 37.4153 106.092 37.4153C103.52 37.4153 102.386 35.6189 102.386 33.7213Z" fill="#96A1A9"/>
<path d="M113.112 32.9776V32.8511C113.112 30.827 114.291 28.3931 117.334 28.3931C119.789 28.3931 121.217 29.9111 121.335 31.5405H119.028C118.951 31.1474 118.735 30.7979 118.422 30.5595C118.109 30.3211 117.721 30.2109 117.334 30.2502C115.807 30.2502 115.371 31.7682 115.371 32.8511V32.9776C115.371 34.0808 115.793 35.5432 117.334 35.5533C117.72 35.5943 118.106 35.4867 118.419 35.2511C118.732 35.0156 118.949 34.669 119.028 34.2781H121.335C121.217 35.8873 119.774 37.4155 117.334 37.4155C114.291 37.4155 113.112 34.9967 113.112 32.9776Z" fill="#96A1A9"/>
<path d="M123.692 37.2382L127.001 28.5649H129.553L132.848 37.2382H130.575L130 35.7201H126.564L125.984 37.2382H123.692ZM127.251 33.8681H129.298L128.316 31.0293H128.233L127.251 33.8681Z" fill="#96A1A9"/>
<path d="M136.833 37.2382V30.422H134.511L134.487 28.5649H141.399V30.422H139.092V37.2382H136.833Z" fill="#96A1A9"/>
<path d="M144.556 37.2382V28.5649H146.824V37.2382H144.556Z" fill="#96A1A9"/>
<path d="M150.172 32.9776V32.8511C150.172 30.827 151.35 28.3931 154.394 28.3931C157.437 28.3931 158.552 30.8321 158.552 32.8511V32.9776C158.552 35.0017 157.472 37.4155 154.394 37.4155C151.316 37.4155 150.172 34.9967 150.172 32.9776ZM156.318 32.9776V32.8511C156.318 31.748 155.871 30.2401 154.394 30.2502C152.916 30.2603 152.43 31.7682 152.43 32.8511V32.9776C152.43 34.0808 152.852 35.5432 154.394 35.5533C155.935 35.5634 156.338 34.0808 156.338 32.9776H156.318Z" fill="#96A1A9"/>
<path d="M161.954 37.2382V28.5649H164.409L167.094 33.6606H167.163V28.5649H169.436V37.2382H166.947L164.276 32.178H164.207V37.2382H161.954Z" fill="#96A1A9"/>
</svg>
