<svg width="32" height="33" viewBox="0 0 32 33" fill="none" xmlns="http://www.w3.org/2000/svg">
<path d="M15.9991 0.266602C8.55246 0.266602 1.90894 5.61901 0.351206 12.9075C-0.427052 16.5493 0.0972227 20.4218 1.83352 23.7171C3.5046 26.8884 6.24419 29.4515 9.52192 30.904C12.9313 32.4153 16.8455 32.6786 20.4289 31.648C23.8861 30.6541 26.9514 28.4726 29.0383 25.5443C33.4017 19.4222 32.8183 10.8226 27.6848 5.33689C24.6761 2.12194 20.4028 0.266602 15.9991 0.266602ZM23.6753 17.1229L19.3131 21.5902C18.2087 22.7215 16.463 21.0076 17.563 19.8816L19.764 17.6276H9.33317C8.59242 17.6276 7.97438 17.0091 7.97438 16.2688C7.97438 15.5284 8.59282 14.91 9.33317 14.91H19.7118L17.4672 12.6657C16.3518 11.5503 18.0811 9.82054 19.1965 10.9359L23.6651 15.4041C24.1388 15.8774 24.1433 16.6438 23.6753 17.1229Z" fill="white"/>
</svg>
