<svg width="40" height="41" viewBox="0 0 40 41" fill="none" xmlns="http://www.w3.org/2000/svg">
<g id="WhatsApp">
<g id="WhatsApp_2">
<path id="Oval" d="M20 40.9629C31.0457 40.9629 40 32.0086 40 20.9629C40 9.9172 31.0457 0.962891 20 0.962891C8.9543 0.962891 0 9.9172 0 20.9629C0 32.0086 8.9543 40.9629 20 40.9629Z" fill="black"></path>
<path id="Page-1" fill-rule="evenodd" clip-rule="evenodd" d="M20.6596 32.0899H20.6546C18.6642 32.0892 16.7085 31.5898 14.9714 30.6424L8.66699 32.2961L10.3542 26.1335C9.31344 24.3299 8.76581 22.284 8.7667 20.188C8.76931 13.6309 14.1043 8.29614 20.6594 8.29614C23.8409 8.29752 26.8268 9.53603 29.0722 11.784C31.3175 14.0318 32.5534 17.0198 32.5521 20.1974C32.5495 26.753 27.2166 32.0872 20.6596 32.0899ZM15.2635 28.4894L15.6245 28.7036C17.1421 29.6042 18.8818 30.0807 20.6555 30.0814H20.6596C26.1077 30.0814 30.5419 25.6471 30.5441 20.1967C30.5451 17.5555 29.518 15.072 27.6517 13.2036C25.7855 11.3352 23.3036 10.3058 20.6634 10.3048C15.2111 10.3048 10.7768 14.7387 10.7746 20.1887C10.7739 22.0564 11.2965 23.8754 12.2859 25.4492L12.521 25.8232L11.5224 29.4708L15.2635 28.4894ZM26.2436 22.7578C26.4509 22.858 26.5908 22.9256 26.6506 23.0254C26.7249 23.1493 26.7249 23.7443 26.4774 24.4385C26.2296 25.1326 25.0425 25.7661 24.4715 25.8514C23.9596 25.9279 23.3117 25.9599 22.5999 25.7336C22.1683 25.5967 21.6148 25.4139 20.9059 25.1077C18.1201 23.9048 16.2375 21.2048 15.8817 20.6945C15.8567 20.6587 15.8393 20.6337 15.8296 20.6207L15.8272 20.6175C15.6699 20.4077 14.6162 19.0018 14.6162 17.5468C14.6162 16.178 15.2886 15.4605 15.5981 15.1303C15.6193 15.1077 15.6388 15.0869 15.6562 15.0678C15.9286 14.7703 16.2506 14.6959 16.4486 14.6959C16.6467 14.6959 16.845 14.6978 17.0182 14.7064C17.0395 14.7075 17.0618 14.7074 17.0847 14.7073C17.2579 14.7062 17.4738 14.705 17.6868 15.2165C17.7687 15.4134 17.8886 15.7053 18.0151 16.0132C18.2707 16.6357 18.5532 17.3234 18.6029 17.423C18.6773 17.5717 18.7268 17.7452 18.6277 17.9436C18.6129 17.9733 18.5991 18.0014 18.586 18.0282C18.5116 18.1801 18.4568 18.2918 18.3306 18.4393C18.2809 18.4972 18.2296 18.5597 18.1783 18.6222C18.0761 18.7467 17.9738 18.8712 17.8848 18.9599C17.7361 19.1081 17.5812 19.2688 17.7545 19.5663C17.9279 19.8638 18.5243 20.8369 19.4077 21.6249C20.3573 22.4719 21.1826 22.8299 21.6009 23.0113C21.6826 23.0468 21.7488 23.0755 21.7973 23.0998C22.0944 23.2486 22.2677 23.2237 22.4411 23.0254C22.6144 22.8271 23.1839 22.1577 23.382 21.8602C23.5801 21.5628 23.7782 21.6124 24.0506 21.7115C24.323 21.8108 25.784 22.5296 26.0811 22.6783C26.1391 22.7073 26.1934 22.7335 26.2436 22.7578Z" fill="white"></path>
</g>
</g>
</svg>
