<svg width="25" height="25" viewBox="0 0 25 25" fill="none" xmlns="http://www.w3.org/2000/svg">
<path fill-rule="evenodd" clip-rule="evenodd" d="M12.6556 24.127H12.6605C19.2175 24.1243 24.5505 18.7901 24.5531 12.2345C24.5543 9.05686 23.3185 6.06893 21.0731 3.82109C18.8278 1.57314 15.8418 0.334625 12.6604 0.333252C6.10532 0.333252 0.770286 5.668 0.767677 12.2251C0.766784 14.3212 1.31441 16.367 2.35515 18.1706L0.667969 24.3333L6.97243 22.6795C8.70947 23.6269 10.6652 24.1263 12.6556 24.127ZM18.2446 14.795C18.4519 14.8951 18.5918 14.9628 18.6516 15.0625C18.7258 15.1864 18.7258 15.7814 18.4783 16.4756C18.2306 17.1697 17.0435 17.8032 16.4725 17.8885C15.9606 17.9651 15.3127 17.997 14.6009 17.7708C14.1693 17.6338 13.6158 17.451 12.9068 17.1448C10.1211 15.9419 8.23844 13.2419 7.88264 12.7316C7.85771 12.6958 7.84028 12.6708 7.83055 12.6579L7.82816 12.6547C7.6709 12.4448 6.61719 11.0389 6.61719 9.58388C6.61719 8.2151 7.28955 7.49766 7.59904 7.16742C7.62025 7.14479 7.63975 7.12398 7.65721 7.10491C7.92958 6.80741 8.25154 6.73303 8.44963 6.73303C8.6477 6.73303 8.84602 6.73486 9.01916 6.74356C9.04052 6.74463 9.06274 6.7445 9.08571 6.74437C9.25888 6.74335 9.47477 6.74209 9.68774 7.25366C9.76968 7.45054 9.88958 7.74244 10.016 8.05029C10.2717 8.67279 10.5542 9.36055 10.6039 9.46008C10.6782 9.60883 10.7277 9.78229 10.6287 9.9807C10.6138 10.0104 10.6001 10.0385 10.5869 10.0653C10.5125 10.2172 10.4578 10.329 10.3316 10.4764C10.2819 10.5344 10.2306 10.5968 10.1793 10.6593C10.077 10.7838 9.97482 10.9083 9.88581 10.997C9.73705 11.1452 9.58219 11.3059 9.75552 11.6034C9.92886 11.9009 10.5252 12.874 11.4086 13.662C12.3582 14.509 13.1836 14.867 13.6019 15.0484C13.6836 15.0839 13.7498 15.1126 13.7983 15.1369C14.0954 15.2857 14.2687 15.2608 14.4421 15.0625C14.6154 14.8642 15.1849 14.1948 15.383 13.8973C15.581 13.6 15.7792 13.6495 16.0515 13.7486C16.324 13.8479 17.7849 14.5667 18.0821 14.7154C18.1401 14.7444 18.1943 14.7707 18.2446 14.795Z" fill="black"></path>
</svg>
