<svg width="40" height="41" fill="none" xmlns="http://www.w3.org/2000/svg"><g id="WhatsApp"><g id="WhatsApp_2"><path id="Oval" d="M20 40.963c11.046 0 20-8.954 20-20s-8.954-20-20-20-20 8.954-20 20 8.954 20 20 20Z" fill="#000"/><path id="Page-1" fill-rule="evenodd" clip-rule="evenodd" d="M20.66 32.09h-.005c-1.99 0-3.947-.5-5.684-1.448l-6.304 1.654 1.687-6.162a11.871 11.871 0 0 1-1.587-5.946c.002-6.557 5.337-11.892 11.892-11.892a11.816 11.816 0 0 1 8.413 3.488 11.82 11.82 0 0 1 3.48 8.413c-.002 6.556-5.335 11.89-11.892 11.893Zm-5.396-3.6.36.214a9.87 9.87 0 0 0 5.031 1.377h.005c5.448 0 9.882-4.434 9.884-9.884a9.825 9.825 0 0 0-2.892-6.993 9.818 9.818 0 0 0-6.989-2.9c-5.452 0-9.886 4.435-9.888 9.885-.001 1.867.521 3.686 1.51 5.26l.236.374-.999 3.648 3.742-.982Zm10.98-5.732c.207.1.347.168.407.267.074.124.074.72-.174 1.414-.247.694-1.434 1.327-2.006 1.412-.511.077-1.16.109-1.871-.117-.432-.137-.985-.32-1.694-.626-2.786-1.203-4.668-3.903-5.024-4.413l-.052-.074-.003-.003c-.157-.21-1.21-1.616-1.21-3.071 0-1.369.672-2.087.981-2.417l.058-.062c.273-.298.595-.372.793-.372.198 0 .396.002.57.01.02.002.043.001.066.001.173 0 .389-.002.602.51.082.196.202.488.328.796.256.623.538 1.31.588 1.41.074.149.124.322.025.52l-.042.085c-.074.152-.13.264-.255.411-.05.058-.101.12-.153.183a4.92 4.92 0 0 1-.293.338c-.149.148-.304.309-.13.606.173.298.77 1.27 1.653 2.059A7.674 7.674 0 0 0 21.6 23.01c.082.036.148.065.196.089.297.149.47.124.644-.075.173-.198.743-.867.941-1.165.198-.297.396-.248.669-.148.272.099 1.733.818 2.03.966.058.03.112.055.163.08Z" fill="#fff"/></g></g></svg>