<svg width="43" height="43" viewBox="0 0 43 43" fill="none" xmlns="http://www.w3.org/2000/svg">
<path d="M21.5 42.2676C27.2212 42.2676 32.7689 39.9538 36.7564 35.9262C40.7439 31.9842 43.0844 26.414 42.9977 20.8439C42.911 15.2737 40.5705 9.78926 36.4964 6.01869C32.5089 2.24811 26.9611 0.105745 21.5 0.277135C24.1872 0.36283 26.8744 0.962693 29.3883 2.07673C31.8154 3.19076 34.0692 4.73326 35.8896 6.61855C39.617 10.3891 41.6974 15.6165 41.6107 20.8439C41.524 23.4147 41.0039 26.0713 39.9637 28.385C38.9235 30.7845 37.4499 32.9268 35.6295 34.8121C31.9021 38.497 26.7011 40.5537 21.5 40.5537C16.299 40.6394 11.0979 38.497 7.37048 34.8121C5.55011 33.0125 3.9898 30.7845 2.94959 28.385C1.99606 26.0713 1.38927 23.5004 1.38927 20.8439C1.30259 15.6165 3.38301 10.3891 7.11043 6.61855C8.9308 4.73326 11.1846 3.19076 13.6117 2.07673C16.0389 0.962693 18.7261 0.36283 21.5 0.277135C16.0389 0.105745 10.4911 2.24811 6.50364 6.01869C2.51617 9.87495 0.0890105 15.2737 0.00232636 20.8439C-0.0843578 26.414 2.25611 31.9842 6.24359 35.9262C10.2311 39.9538 15.8655 42.2676 21.5 42.2676Z" fill="black"/>
</svg>
