<svg width="32" height="33" fill="none" xmlns="http://www.w3.org/2000/svg"><path d="M16 .267C8.551.267 1.908 5.619.35 12.907a16.109 16.109 0 0 0 1.483 10.81 16.134 16.134 0 0 0 7.688 7.187 16.114 16.114 0 0 0 10.907.744 16.106 16.106 0 0 0 8.61-6.104c4.363-6.122 3.78-14.721-1.354-20.207A16.09 16.09 0 0 0 15.999.267Zm7.675 16.856-4.362 4.467c-1.104 1.131-2.85-.582-1.75-1.708l2.201-2.254H9.334c-.742 0-1.36-.619-1.36-1.36 0-.74.619-1.358 1.36-1.358h10.378l-2.245-2.244c-1.115-1.116.614-2.845 1.73-1.73l4.468 4.468c.474.473.478 1.24.01 1.719Z" fill="#fff"/></svg>