<svg width="25" height="25" fill="none" xmlns="http://www.w3.org/2000/svg"><path fill-rule="evenodd" clip-rule="evenodd" d="M12.656 24.127h.005c6.557-.003 11.89-5.337 11.892-11.892a11.82 11.82 0 0 0-3.48-8.414A11.816 11.816 0 0 0 12.66.333C6.105.333.77 5.668.768 12.225c-.001 2.096.546 4.142 1.587 5.946L.668 24.333l6.304-1.653a11.883 11.883 0 0 0 5.684 1.447Zm5.589-9.332c.207.1.347.168.407.268.074.123.074.718-.174 1.413-.247.694-1.434 1.327-2.006 1.413-.511.076-1.16.108-1.871-.118-.432-.137-.985-.32-1.694-.626-2.786-1.203-4.669-3.903-5.024-4.413a3.198 3.198 0 0 0-.052-.074l-.003-.003c-.157-.21-1.21-1.616-1.21-3.071 0-1.369.672-2.086.981-2.417l.058-.062c.273-.298.595-.372.793-.372.198 0 .396.002.57.01.02.002.043.002.066.001.173 0 .389-.002.602.51l.328.796c.256.623.538 1.31.588 1.41.074.149.124.322.025.52l-.042.085c-.075.152-.13.264-.255.411-.05.058-.101.12-.153.183-.102.125-.204.25-.293.338-.149.148-.304.309-.13.606.173.298.77 1.271 1.653 2.059a7.674 7.674 0 0 0 2.193 1.386c.082.036.148.065.196.089.297.149.47.124.644-.075.173-.198.743-.867.941-1.165.198-.297.396-.248.669-.148.272.099 1.733.818 2.03.966.058.03.112.056.163.08Z" fill="#000"/></svg>